<svg version="1.2" xmlns="http://www.w3.org/2000/svg" viewBox="0 0 1122 1122" width="1122" height="1122">
	<title>background-ai</title>
	<style>
		.s0 { fill: #ffb84b } 
		.s1 { fill: #c5c626 } 
		.s2 { fill: #dd5147 } 
		.s3 { fill: #00a9a7 } 
		.s4 { fill: #00c7bf } 
		.s5 { fill: #ff755f } 
	</style>
	<g id="_Artboards_">
	</g>
	<g id="BG">
	</g>
	<g id="Object">
		<g id="&lt;Group&gt;">
			<path id="&lt;Path&gt;" class="s0" d="m188.9 359.5c-3.9 0-7.1-2.9-7.1-6.5 0-3.6 3.2-6.5 7.1-6.5 3.9 0 7 2.9 7 6.5 0 3.6-3.1 6.5-7 6.5z"/>
			<path id="&lt;Path&gt;" class="s1" d="m248.3 753.4c-10.3 0-18.8-7.7-18.8-17.2 0-9.5 8.5-17.2 18.8-17.2 10.4 0 18.8 7.7 18.8 17.2 0 9.5-8.4 17.2-18.8 17.2z"/>
			<path id="&lt;Path&gt;" class="s1" d="m461.1 971.6c-10.4 0-18.8-7.7-18.8-17.2 0-9.5 8.4-17.2 18.8-17.2 10.4 0 18.8 7.7 18.8 17.2 0 9.5-8.4 17.2-18.8 17.2z"/>
			<path id="&lt;Path&gt;" class="s2" d="m602.8 735.2c-12.4 0-22.5-9.2-22.5-20.5 0-11.3 10.1-20.5 22.5-20.5 12.3 0 22.4 9.2 22.4 20.5 0 11.3-10.1 20.5-22.4 20.5z"/>
			<path id="&lt;Path&gt;" class="s3" d="m987.7 708.5c-5.5 0-10-4.1-10-9.2 0-5 4.5-9.2 10-9.2 5.6 0 10.1 4.2 10.1 9.2 0 5.1-4.5 9.2-10.1 9.2z"/>
			<path id="&lt;Path&gt;" class="s3" d="m98.4 410.9c-12.4 0-22.4-9.1-22.4-20.5 0-11.3 10-20.5 22.4-20.5 12.4 0 22.4 9.2 22.4 20.5 0 11.4-10 20.5-22.4 20.5z"/>
			<path id="&lt;Path&gt;" class="s4" d="m493.3 202c-9.2 0-16.7-6.9-16.7-15.3 0-8.5 7.5-15.3 16.7-15.3 9.3 0 16.7 6.8 16.7 15.3 0 8.4-7.4 15.3-16.7 15.3z"/>
			<path id="&lt;Path&gt;" class="s0" d="m79.6 653.2c-12.4 0-22.5-9.2-22.5-20.5 0-11.4 10.1-20.6 22.5-20.6 12.4 0 22.4 9.2 22.4 20.6 0 11.3-10 20.5-22.4 20.5z"/>
			<path id="&lt;Path&gt;" class="s3" d="m283 577.5c-9.2 0-16.6-6.9-16.6-15.3 0-8.4 7.4-15.2 16.6-15.2 9.2 0 16.7 6.8 16.7 15.2 0 8.4-7.5 15.3-16.7 15.3z"/>
			<path id="&lt;Path&gt;" class="s3" d="m687.8 182.7c-7.6 0-13.8-5.7-13.8-12.7 0-6.9 6.2-12.6 13.8-12.6 7.7 0 13.8 5.7 13.8 12.6 0 7-6.1 12.7-13.8 12.7z"/>
			<path id="&lt;Path&gt;" class="s0" d="m790.3 120.8c-7.2 0-13-5.4-13-12 0-6.6 5.8-11.9 13-11.9 7.2 0 13.1 5.3 13.1 11.9 0 6.6-5.9 12-13.1 12z"/>
			<path id="&lt;Path&gt;" class="s4" d="m1071.8 567.8c-3.3 3.1-8.8 3.1-12.1 0-3.4-3.1-3.4-8 0-11.1 3.3-3.1 8.8-3.1 12.1 0 3.4 3.1 3.4 8 0 11.1z"/>
			<path id="&lt;Path&gt;" class="s5" d="m155.5 546.9c-4.5 4.2-11.8 4.2-16.3 0-4.5-4.1-4.5-10.8 0-14.9 4.5-4.1 11.8-4.1 16.3 0 4.6 4.1 4.6 10.8 0 14.9z"/>
			<path id="&lt;Path&gt;" class="s3" d="m727.1 652.6c-4.5 4.1-11.8 4.1-16.3 0-4.5-4.1-4.5-10.8 0-14.9 4.5-4.1 11.8-4.1 16.3 0 4.5 4.1 4.5 10.8 0 14.9z"/>
			<path id="&lt;Path&gt;" class="s5" d="m867.1 304c-3.3 3.1-8.8 3.1-12.2 0-3.3-3-3.3-8 0-11.1 3.4-3.1 8.9-3.1 12.2 0 3.4 3.1 3.4 8.1 0 11.1z"/>
			<path id="&lt;Path&gt;" class="s0" d="m463.4 46c-5 4.6-13.1 4.6-18.1 0-5.1-4.6-5.1-12 0-16.6 5-4.6 13.1-4.6 18.1 0 5 4.6 5 12 0 16.6z"/>
			<path id="&lt;Path&gt;" class="s2" d="m170.7 711.6c-4.5 4.1-11.8 4.1-16.3 0-4.5-4.1-4.5-10.8 0-14.9 4.5-4.1 11.8-4.1 16.3 0 4.5 4.1 4.5 10.8 0 14.9z"/>
			<path id="&lt;Path&gt;" class="s0" d="m857.7 637.3c-4.6 4.1-11.9 4.1-16.4 0-4.5-4.1-4.5-10.8 0-15 4.5-4.1 11.8-4.1 16.4 0 4.5 4.2 4.5 10.9 0 15z"/>
			<path id="&lt;Path&gt;" class="s3" d="m103.8 92.4c-4.9 0-8.9-3.6-8.9-8.2 0-4.5 4-8.1 8.9-8.1 5 0 9 3.6 9 8.1 0 4.6-4 8.2-9 8.2z"/>
			<path id="&lt;Path&gt;" class="s1" d="m779 579.2c-10.2 0-18.6-7.6-18.6-17 0-9.3 8.4-16.9 18.6-16.9 10.3 0 18.6 7.6 18.6 16.9 0 9.4-8.3 17-18.6 17z"/>
			<path id="&lt;Path&gt;" class="s2" d="m983.1 441.3c-5.2-8.8-2.7-19.8 5.4-24.5 8.1-4.7 18.8-1.3 24 7.6 5.1 8.9 2.7 19.9-5.4 24.5-8.2 4.7-18.9 1.3-24-7.6z"/>
			<path id="&lt;Path&gt;" class="s2" d="m286.4 420.7c-8.8 0-16-6.5-16-14.6 0-8.1 7.2-14.6 16-14.6 8.9 0 16 6.5 16 14.6 0 8.1-7.1 14.6-16 14.6z"/>
			<path id="&lt;Path&gt;" class="s4" d="m72.1 885c-6.6 0-12-4.9-12-10.9 0-6 5.4-10.9 12-10.9 6.6 0 11.9 4.9 11.9 10.9 0 6-5.3 10.9-11.9 10.9z"/>
			<path id="&lt;Path&gt;" class="s2" d="m364.6 884.9c-6.5 0-11.8-4.8-11.8-10.8 0-6 5.3-10.9 11.8-10.9 6.6 0 11.9 4.9 11.9 10.9 0 6-5.3 10.8-11.9 10.8z"/>
			<path id="&lt;Path&gt;" class="s5" d="m940.5 80.3c-4.6 0-8.3-3.4-8.3-7.7 0-4.2 3.7-7.6 8.3-7.6 4.6 0 8.4 3.4 8.4 7.6 0 4.3-3.8 7.7-8.4 7.7z"/>
			<path id="&lt;Path&gt;" class="s5" d="m137.5 803.9c-6.5 0-11.9-4.9-11.9-10.9 0-6 5.4-10.8 11.9-10.8 6.6 0 11.9 4.8 11.9 10.8 0 6-5.3 10.9-11.9 10.9z"/>
			<path id="&lt;Path&gt;" class="s0" d="m701.1 483.8c-6.1 0-11-4.5-11-10.1 0-5.5 4.9-10 11-10 6 0 10.9 4.5 10.9 10 0 5.6-4.9 10.1-10.9 10.1z"/>
			<path id="&lt;Path&gt;" class="s1" d="m58.6 211.6c-6.1 0-10.9-4.5-10.9-10 0-5.5 4.8-10 10.9-10 6 0 10.9 4.5 10.9 10 0 5.5-4.9 10-10.9 10z"/>
			<path id="&lt;Path&gt;" class="s5" d="m730.8 413.4c-6.5 0-11.9-4.8-11.9-10.8 0-6 5.4-10.9 11.9-10.9 6.6 0 11.9 4.9 11.9 10.9 0 6-5.3 10.8-11.9 10.8z"/>
			<path id="&lt;Path&gt;" class="s5" d="m281.4 1038.4c-3.6 3.3-9.4 3.3-13 0-3.5-3.3-3.5-8.6 0-11.9 3.6-3.2 9.4-3.2 13 0 3.6 3.3 3.6 8.6 0 11.9z"/>
			<path id="&lt;Path&gt;" class="s4" d="m618.5 547c-3.3 2.9-8.5 2.9-11.7 0-3.2-3-3.2-7.7 0-10.7 3.2-2.9 8.4-2.9 11.7 0 3.2 3 3.2 7.7 0 10.7z"/>
			<path id="&lt;Path&gt;" class="s2" d="m418.5 627.1c-3.2 2.9-8.4 2.9-11.6 0-3.3-3-3.3-7.8 0-10.7 3.2-2.9 8.4-2.9 11.6 0 3.2 2.9 3.2 7.7 0 10.7z"/>
			<path id="&lt;Path&gt;" class="s2" d="m245.4 214.1c-8.9-0.7-15.6-7.9-15-16.1 0.6-8.1 8.4-14.1 17.3-13.4 8.9 0.7 15.6 7.9 15 16-0.7 8.2-8.4 14.2-17.3 13.5z"/>
			<path id="&lt;Path&gt;" class="s4" d="m419.5 505.6c-9 0-16.2-6.6-16.2-14.8 0-8.1 7.2-14.8 16.2-14.8 8.9 0 16.1 6.7 16.1 14.8 0 8.2-7.2 14.8-16.1 14.8z"/>
			<path id="&lt;Path&gt;" class="s2" d="m970.4 916.8c-8.4 0-15.3-6.2-15.3-13.9 0-7.7 6.9-13.9 15.3-13.9 8.4 0 15.2 6.2 15.2 13.9 0 7.7-6.8 13.9-15.2 13.9z"/>
			<path id="&lt;Path&gt;" class="s4" d="m730.5 308.2c-10.7 0-19.3-7.9-19.3-17.6 0-9.7 8.6-17.6 19.3-17.6 10.6 0 19.3 7.9 19.3 17.6 0 9.7-8.7 17.6-19.3 17.6z"/>
			<path id="&lt;Path&gt;" class="s1" d="m132.4 1036.6c-4.8 0-8.6-3.5-8.6-7.9 0-4.3 3.8-7.9 8.6-7.9 4.8 0 8.6 3.6 8.6 7.9 0 4.4-3.8 7.9-8.6 7.9z"/>
			<path id="&lt;Path&gt;" class="s4" d="m409.9 754.2c-7.9 0-14.4-5.9-14.4-13.1 0-7.2 6.5-13.1 14.4-13.1 7.9 0 14.3 5.9 14.3 13.1 0 7.2-6.4 13.1-14.3 13.1z"/>
			<path id="&lt;Path&gt;" class="s1" d="m932.4 1050.4c-2.9 2.6-7.6 2.6-10.4 0-2.9-2.7-2.9-6.9 0-9.6 2.8-2.6 7.5-2.6 10.4 0 2.9 2.7 2.9 6.9 0 9.6z"/>
			<path id="&lt;Path&gt;" class="s1" d="m343.3 137.1c-8.8 0-15.9-6.5-15.9-14.6 0-8 7.1-14.5 15.9-14.5 8.8 0 16 6.5 16 14.5 0 8.1-7.2 14.6-16 14.6z"/>
			<path id="&lt;Path&gt;" class="s3" d="m238.3 927.8c-8.8 0-15.9-6.5-15.9-14.5 0-8.1 7.1-14.6 15.9-14.6 8.8 0 16 6.5 16 14.6 0 8-7.2 14.5-16 14.5z"/>
			<path id="&lt;Path&gt;" class="s1" d="m869 164.1c-8.8 0-15.9-6.5-15.9-14.6 0-8 7.1-14.6 15.9-14.6 8.8 0 16 6.6 16 14.6 0 8.1-7.2 14.6-16 14.6z"/>
			<path id="&lt;Path&gt;" class="s1" d="m498.8 833.7c-3.9 0-7-2.9-7-6.5 0-3.5 3.1-6.4 7-6.4 3.9 0 7.1 2.9 7.1 6.4 0 3.6-3.2 6.5-7.1 6.5z"/>
			<path id="&lt;Path&gt;" class="s5" d="m826.9 953.3c8.3 3.3 12.4 12.8 9.3 21.3-3.1 8.5-12.4 12.7-20.6 9.5-8.3-3.2-12.4-12.7-9.3-21.2 3.1-8.5 12.3-12.8 20.6-9.6z"/>
			<path id="&lt;Path&gt;" class="s0" d="m981.8 812.3c-6.3 0-11.4-4.7-11.4-10.4 0-5.8 5.1-10.4 11.4-10.4 6.2 0 11.3 4.6 11.3 10.4 0 5.7-5.1 10.4-11.3 10.4z"/>
			<path id="&lt;Path&gt;" class="s5" d="m117 286.1c8.7 1.7 14.5 10.4 12.9 19.3-1.6 8.9-10 14.7-18.7 13-8.7-1.8-14.4-10.4-12.8-19.3 1.6-8.9 9.9-14.7 18.6-13z"/>
			<path id="&lt;Path&gt;" class="s4" d="m826.1 749c8.3 3.2 12.5 12.8 9.3 21.2-3.1 8.5-12.3 12.8-20.6 9.6-8.3-3.2-12.4-12.7-9.3-21.2 3.2-8.5 12.4-12.8 20.6-9.6z"/>
			<path id="&lt;Path&gt;" class="s5" d="m486.5 309.9c-4.7 3.9-11.4 3.7-15-0.5-3.6-4.3-2.7-10.9 1.9-14.8 4.6-4 11.3-3.7 14.9 0.5 3.6 4.2 2.8 10.8-1.8 14.8z"/>
			<path id="&lt;Path&gt;" class="s2" d="m57.4 508.2c-4-7.1-2.1-15.9 4.4-19.6 6.4-3.7 15-1 19.1 6.1 4.1 7 2.1 15.8-4.3 19.5-6.5 3.8-15.1 1.1-19.2-6z"/>
			<path id="&lt;Path&gt;" class="s4" d="m1009.3 316.5c-4.8 0-8.7-3.6-8.7-8 0-4.4 3.9-8 8.7-8 4.8 0 8.8 3.6 8.8 8 0 4.4-4 8-8.8 8z"/>
			<path id="&lt;Path&gt;" class="s5" d="m560.1 95.9c-7 0-12.7-5.2-12.7-11.7 0-6.4 5.7-11.6 12.7-11.6 7 0 12.7 5.2 12.7 11.6 0 6.5-5.7 11.7-12.7 11.7z"/>
			<path id="&lt;Path&gt;" class="s0" d="m661 1050.7c-6-0.5-10.5-5.3-10.1-10.7 0.5-5.5 5.6-9.5 11.6-9 6 0.4 10.5 5.3 10 10.7-0.4 5.5-5.5 9.5-11.5 9z"/>
			<path id="&lt;Path&gt;" class="s1" d="m1012.2 639.4c-5.9 1.1-11.3-2.4-12.3-7.7-0.9-5.3 3-10.5 8.9-11.5 5.8-1 11.3 2.4 12.2 7.7 0.9 5.4-3 10.5-8.8 11.5z"/>
			<path id="&lt;Path&gt;" class="s0" d="m506.2 586.2c-6.3 0-11.4-4.6-11.4-10.4 0-5.7 5.1-10.4 11.4-10.4 6.3 0 11.4 4.7 11.4 10.4 0 5.8-5.1 10.4-11.4 10.4z"/>
			<path id="&lt;Path&gt;" class="s1" d="m562.3 420.6c-10.9 0-19.7-8.1-19.7-18 0-10 8.8-18 19.7-18 10.9 0 19.7 8 19.7 18 0 9.9-8.8 18-19.7 18z"/>
			<path id="&lt;Path&gt;" class="s2" d="m727 47.4c-5 4.6-13.1 4.6-18.1 0-5.1-4.5-5.1-12 0-16.5 5-4.6 13.1-4.6 18.1 0 5 4.5 5 12 0 16.5z"/>
			<path id="&lt;Path&gt;" class="s0" d="m893.2 395.1c-5 4.6-13.1 4.6-18.1 0-5-4.6-5-12 0-16.6 5-4.6 13.1-4.6 18.1 0 5.1 4.6 5.1 12 0 16.6z"/>
			<path id="&lt;Path&gt;" class="s3" d="m595.9 936c-8.8 0-16-6.6-16-14.7 0-8 7.2-14.6 16-14.6 8.8 0 16 6.6 16 14.6 0 8.1-7.2 14.7-16 14.7z"/>
			<path id="&lt;Path&gt;" class="s0" d="m701.1 888.7c-8.9 0-16-6.5-16-14.6 0-8.1 7.1-14.6 16-14.6 8.8 0 16 6.5 16 14.6 0 8.1-7.2 14.6-16 14.6z"/>
			<path id="&lt;Path&gt;" class="s3" d="m1028.8 179.5c-3.6 3.3-9.4 3.3-13 0-3.5-3.2-3.5-8.5 0-11.8 3.6-3.3 9.4-3.3 13 0 3.6 3.3 3.6 8.6 0 11.8z"/>
			<path id="&lt;Path&gt;" class="s5" d="m206.6 116.6v-29.1l27.4 8z"/>
			<path id="&lt;Path&gt;" class="s5" d="m691.8 759.4l15.5-19.5 15.7 26.9z"/>
			<path id="&lt;Path&gt;" class="s3" d="m831.9 442.6l29.7 13.5-23.9 23.1z"/>
			<path id="&lt;Path&gt;" class="s0" d="m193 453.7l29-2.7-5.4 28.1z"/>
			<path id="&lt;Path&gt;" class="s5" d="m546.7 1071.8l15.5-19.4 15.7 26.8z"/>
			<path id="&lt;Path&gt;" class="s3" d="m287.6 785.6l29.7 13.4-24 23.1z"/>
			<path id="&lt;Path&gt;" class="s5" d="m316.8 463.5l24-21.5 14.8 37.4z"/>
			<path id="&lt;Path&gt;" class="s2" d="m505.5 255.8l22-27.8 22.1 38.4z"/>
			<path id="&lt;Path&gt;" class="s5" d="m679.2 165.6l5.6-36.5 32.1 19.1z"/>
			<path id="&lt;Path&gt;" class="s4" d="m372.6 1001.6l-27.7-7.4 17.5-23.9z"/>
			<path id="&lt;Path&gt;" class="s5" d="m480.2 729.7l22-27.8 22.1 38.4z"/>
			<path id="&lt;Path&gt;" class="s0" d="m887.5 230.4l29-2.7-5.5 28z"/>
			<path id="&lt;Path&gt;" class="s5" d="m1011.2 240.2l24.1-21.6 14.7 37.4z"/>
			<path id="&lt;Path&gt;" class="s0" d="m250.8 202.5l29-2.7-5.5 28.1z"/>
			<path id="&lt;Path&gt;" class="s3" d="m347.6 309l-18.5-28.1 40.8-9.4z"/>
			<path id="&lt;Path&gt;" class="s3" d="m506.9 521.6l29-2.7-5.4 28z"/>
			<path id="&lt;Path&gt;" class="s5" d="m645.5 548.1l24.1-21.5 14.7 37.4z"/>
			<path id="&lt;Path&gt;" class="s1" d="m799.5 864.4l29-2.6-5.4 28z"/>
			<path id="&lt;Path&gt;" class="s3" d="m971 1009.2l24.1-21.6 14.7 37.4z"/>
			<g id="&lt;Group&gt;">
				<path id="&lt;Path&gt;" class="s2" d="m624.1 966.6c-0.6-1.6-0.9-3.3-0.6-5 0.3-1.7 2-2.9 3.7-2.6 1.8 0.3 3 1.9 2.7 3.7-0.3 1.6 1.5 3.7 4 4.7 1.1 0.5 5 1.8 7.4-1.5 3.4-4.6 8.3-6.5 13-5 4.7 1.5 7.9 6.3 8 12.1 0 2.7 1.4 4.8 3.5 5.5 2.4 0.7 4.9-0.5 6.7-3.1 1.1-1.5 3.1-1.9 4.5-0.8 1.5 1 1.9 3 0.9 4.5-3.5 5-8.9 7.1-13.9 5.6-4.9-1.5-8.1-6-8.2-11.6 0-3-1.4-5.4-3.5-6-2-0.7-4.1 0.3-5.8 2.6-3.4 4.7-9.4 6.1-15.2 3.7-3.4-1.5-6-4-7.2-6.8z"/>
			</g>
			<g id="&lt;Group&gt;">
				<path id="&lt;Path&gt;" class="s0" d="m427.4 879c-1.7 0.9-3.6 1.4-5.7 1.6-5.5 0.4-10.9-2.1-13.7-6.3-1.3-1.7-3.1-2.7-5.2-2.6-2.6 0.1-5.2 1.8-6.6 4.4-2.3 4-6.8 6.6-12 6.8-5.3 0.3-10.3-1.9-12.9-5.7-1-1.5-2.3-2.1-3.9-2.1-2.2 0.1-4.3 1.4-5 2.6-0.9 1.5-2.9 2-4.5 1.1-1.5-0.9-2-2.9-1.1-4.4 1.9-3.2 6.2-5.6 10.3-5.7 3.9-0.2 7.3 1.5 9.5 4.8 1.4 1.9 4.2 3.1 7.3 3 3-0.2 5.5-1.5 6.6-3.6 2.6-4.5 7.2-7.4 12-7.7 4.4-0.1 8.3 1.8 10.8 5.5 1.6 2.3 4.7 3.7 7.9 3.4 1.9-0.1 5.4-1 7.4-5.2 0.7-1.7 2.7-2.3 4.3-1.6 1.6 0.8 2.3 2.7 1.5 4.3-1.6 3.3-4 5.9-7 7.4z"/>
			</g>
			<g id="&lt;Group&gt;">
				<path id="&lt;Path&gt;" class="s5" d="m99.9 921.8c-1.7 0-3.3-0.4-4.7-1.3-1.5-0.9-2-2.9-1-4.5 0.9-1.5 2.9-1.9 4.4-1 1.4 0.9 4 0.1 5.9-1.8 0.9-0.9 3.6-4 1.4-7.5-2.9-4.9-2.7-10.2 0.4-13.9 3.3-3.8 8.9-4.9 14.3-2.7 2.5 1 5 0.5 6.4-1.2 1.6-1.9 1.5-4.6-0.3-7.4-0.9-1.5-0.5-3.5 1-4.4 1.5-1 3.5-0.6 4.5 0.9 3.3 5.2 3.2 10.9-0.2 15-3.2 3.9-8.6 5.1-13.8 3.1-2.8-1.1-5.5-0.8-7 0.9-1.3 1.6-1.2 3.9 0.3 6.4 3 5 2 11-2.5 15.4-2.6 2.6-6 4-9.1 4z"/>
			</g>
			<g id="&lt;Group&gt;">
				<path id="&lt;Path&gt;" class="s0" d="m992.1 751.5c1.8 0.6 3.8 0.7 5.9 0.5 5.5-0.6 10.3-4 12.3-8.7 0.9-1.9 2.5-3.2 4.6-3.5 2.6-0.4 5.4 0.8 7.3 3.1 3 3.5 7.9 5.2 13.1 4.5 5.3-0.8 9.7-3.8 11.6-8.1 0.7-1.6 1.8-2.5 3.5-2.7 2.1-0.3 4.4 0.6 5.4 1.6 1.1 1.3 3.2 1.5 4.5 0.3 1.4-1.2 1.5-3.2 0.3-4.6-2.5-2.8-7.1-4.3-11.2-3.7-3.8 0.6-6.8 2.9-8.4 6.5-1 2.2-3.6 3.9-6.6 4.3-3 0.4-5.7-0.5-7.2-2.3-3.3-4-8.4-6-13.2-5.3-4.3 0.6-7.8 3.3-9.6 7.4-1.1 2.5-4 4.4-7.1 4.8-1.9 0.2-5.5 0-8.2-3.8-1.1-1.5-3.1-1.8-4.6-0.7-1.4 1-1.7 3.1-0.7 4.5 2.2 3 5 5 8.3 5.9z"/>
			</g>
			<g id="&lt;Group&gt;">
				<path id="&lt;Path&gt;" class="s1" d="m870.1 62.5c-1-1.4-1.5-3-1.6-4.7-0.1-1.8 1.3-3.3 3.1-3.3 1.8-0.1 3.3 1.3 3.4 3 0 1.7 2.2 3.3 4.8 3.9 1.2 0.2 5.3 0.7 7-3.1 2.4-5.1 6.8-8 11.6-7.5 5 0.5 9.1 4.5 10.4 10.1 0.6 2.7 2.4 4.5 4.6 4.7 2.4 0.2 4.6-1.4 5.9-4.4 0.7-1.7 2.6-2.4 4.2-1.7 1.7 0.6 2.5 2.5 1.8 4.2-2.4 5.6-7.2 8.8-12.5 8.4-5-0.5-9.1-4.3-10.3-9.7-0.7-2.9-2.5-5-4.7-5.2-2.1-0.2-3.9 1.2-5.1 3.8-2.5 5.3-8 7.9-14.1 6.7-3.7-0.7-6.8-2.7-8.5-5.2z"/>
			</g>
			<g id="&lt;Group&gt;">
				<path id="&lt;Path&gt;" class="s3" d="m995.5 541.5c-0.6-1.6-0.9-3.2-0.6-4.9 0.3-1.7 2-2.9 3.7-2.7 1.8 0.3 3 2 2.7 3.8-0.3 1.6 1.5 3.6 4 4.7 1.1 0.5 5 1.8 7.4-1.6 3.4-4.5 8.4-6.4 13-4.9 4.7 1.5 7.9 6.2 8 12 0.1 2.8 1.4 4.9 3.6 5.6 2.3 0.7 4.8-0.5 6.6-3.2 1.1-1.4 3.1-1.8 4.6-0.8 1.4 1.1 1.8 3.1 0.8 4.5-3.5 5.1-8.9 7.2-13.9 5.7-4.9-1.5-8.1-6.1-8.2-11.6 0-3-1.4-5.4-3.5-6.1-2-0.6-4.1 0.4-5.8 2.7-3.4 4.7-9.4 6.1-15.2 3.7-3.4-1.5-6-4-7.2-6.9z"/>
			</g>
			<g id="&lt;Group&gt;">
				<path id="&lt;Path&gt;" class="s5" d="m478.9 484.6c-1.8 0.8-3.7 1.4-5.8 1.6-5.4 0.4-10.8-2.1-13.7-6.3-1.2-1.8-3-2.7-5.1-2.6-2.7 0.1-5.2 1.8-6.7 4.3-2.3 4.1-6.7 6.7-12 6.9-5.3 0.3-10.2-1.9-12.9-5.8-0.9-1.4-2.2-2.1-3.9-2-2.2 0.1-4.3 1.4-5 2.6-0.9 1.5-2.9 2-4.4 1.1-1.6-0.9-2.1-2.9-1.2-4.4 2-3.3 6.2-5.6 10.4-5.8 3.8-0.1 7.2 1.6 9.5 4.9 1.3 1.9 4.2 3.1 7.2 2.9 3-0.1 5.5-1.4 6.7-3.5 2.5-4.5 7.1-7.5 12-7.7 4.3-0.2 8.3 1.8 10.7 5.5 1.6 2.3 4.8 3.6 7.9 3.4 1.9-0.1 5.4-1 7.4-5.3 0.8-1.6 2.7-2.3 4.3-1.5 1.6 0.8 2.3 2.7 1.6 4.3-1.6 3.3-4 5.8-7 7.4z"/>
			</g>
			<g id="&lt;Group&gt;">
				<path id="&lt;Path&gt;" class="s3" d="m906.1 194.5c-1.7 0-3.3-0.4-4.8-1.3-1.5-0.9-1.9-2.9-1-4.5 1-1.5 3-1.9 4.5-1 1.3 0.9 3.9 0.1 5.9-1.8 0.8-0.9 3.5-3.9 1.4-7.5-2.9-4.9-2.8-10.2 0.4-13.9 3.2-3.8 8.8-4.9 14.2-2.7 2.6 1 5.1 0.5 6.5-1.2 1.5-1.9 1.4-4.6-0.3-7.4-1-1.5-0.5-3.5 1-4.4 1.5-1 3.5-0.6 4.4 0.9 3.3 5.2 3.3 10.9-0.1 15-3.2 3.9-8.7 5.1-13.9 3.1-2.7-1.1-5.5-0.7-6.9 0.9-1.3 1.6-1.2 3.9 0.3 6.4 2.9 5 2 11-2.5 15.4-2.7 2.6-6 4-9.1 4z"/>
			</g>
			<g id="&lt;Group&gt;">
				<path id="&lt;Path&gt;" class="s0" d="m216.3 589.7c1.9 0.5 3.9 0.7 5.9 0.5 5.5-0.6 10.3-4 12.4-8.7 0.8-2 2.4-3.2 4.5-3.5 2.7-0.4 5.5 0.7 7.4 3 2.9 3.6 7.8 5.3 13 4.5 5.3-0.7 9.7-3.8 11.6-8 0.7-1.6 1.9-2.5 3.5-2.8 2.2-0.3 4.5 0.6 5.4 1.6 1.2 1.4 3.2 1.5 4.5 0.3 1.4-1.2 1.5-3.2 0.3-4.5-2.5-2.9-7.1-4.4-11.2-3.8-3.8 0.6-6.8 2.9-8.4 6.5-1 2.2-3.6 3.9-6.6 4.3-2.9 0.4-5.6-0.4-7.2-2.3-3.3-3.9-8.4-5.9-13.2-5.2-4.3 0.6-7.8 3.3-9.6 7.3-1.1 2.5-3.9 4.5-7.1 4.8-1.9 0.2-5.4 0-8.2-3.8-1.1-1.4-3.1-1.7-4.5-0.7-1.5 1.1-1.8 3.1-0.7 4.5 2.1 3 5 5 8.2 6z"/>
			</g>
			<g id="&lt;Group&gt;">
				<path id="&lt;Path&gt;" class="s3" d="m522.7 243.9c-0.9-1.5-1.5-3-1.6-4.7-0.1-1.8 1.3-3.3 3.1-3.4 1.8-0.1 3.3 1.3 3.4 3.1 0.1 1.6 2.2 3.3 4.8 3.8 1.2 0.2 5.3 0.7 7-3 2.4-5.2 6.8-8.1 11.7-7.6 4.9 0.5 9 4.5 10.3 10.2 0.6 2.7 2.4 4.5 4.6 4.7 2.5 0.2 4.7-1.5 5.9-4.5 0.7-1.6 2.6-2.4 4.3-1.7 1.6 0.7 2.4 2.6 1.7 4.2-2.4 5.7-7.2 8.9-12.4 8.4-5.1-0.4-9.2-4.2-10.4-9.7-0.7-2.9-2.5-4.9-4.7-5.1-2-0.3-3.9 1.1-5.1 3.8-2.4 5.2-8 7.9-14.1 6.7-3.7-0.8-6.7-2.7-8.5-5.2z"/>
			</g>
			<g id="&lt;Group&gt;">
				<path id="&lt;Path&gt;" class="s0" d="m138.5 192.5c-1.9 0-3.9-0.4-5.8-1.2-5.1-2.1-8.8-6.7-9.4-11.8-0.3-2.1-1.5-3.8-3.4-4.6-2.4-1.1-5.4-0.8-7.9 0.8-3.9 2.6-9 2.9-13.8 0.7-4.8-2.2-8.2-6.4-8.9-11-0.2-1.7-1-2.9-2.6-3.6-1.9-0.9-4.4-0.7-5.6 0-1.5 1-3.5 0.6-4.4-1-1-1.5-0.5-3.5 1-4.4 3.2-2 8-2.2 11.8-0.5 3.5 1.7 5.7 4.7 6.3 8.7 0.3 2.3 2.3 4.6 5.1 5.9 2.7 1.2 5.5 1.2 7.5-0.2 4.3-2.8 9.7-3.3 14.2-1.3 3.9 1.8 6.5 5.3 7.1 9.7 0.4 2.8 2.6 5.4 5.5 6.6 1.7 0.8 5.2 1.6 8.9-1.3 1.5-1.1 3.5-0.8 4.6 0.6 1.1 1.4 0.8 3.5-0.6 4.5-2.9 2.3-6.2 3.4-9.6 3.4z"/>
			</g>
			<g id="&lt;Group&gt;">
				<path id="&lt;Path&gt;" class="s5" d="m996.4 961.2c-0.2-1.5 0.1-3 0.7-4.3 0.7-1.4 2.5-2 3.9-1.3 1.4 0.7 2 2.4 1.3 3.9-0.7 1.2 0.3 3.5 2.1 5 0.8 0.7 3.8 2.8 6.7 0.7 4.1-3 8.8-3.3 12.3-0.9 3.7 2.6 5.1 7.5 3.7 12.4-0.7 2.4-0.1 4.5 1.5 5.6 1.8 1.2 4.3 0.9 6.6-0.9 1.2-0.9 3-0.7 4 0.5 1 1.3 0.7 3.1-0.5 4.1-4.3 3.3-9.4 3.7-13.3 1.1-3.7-2.5-5.2-7.2-3.8-12 0.7-2.5 0.1-4.9-1.5-6.1-1.5-1-3.5-0.7-5.6 0.8-4.1 3.1-9.6 2.7-13.8-0.9-2.6-2.1-4.1-5-4.3-7.7z"/>
			</g>
			<g id="&lt;Group&gt;">
				<path id="&lt;Path&gt;" class="s0" d="m802.8 720.8c-1.7 0.3-3.5 0.2-5.3-0.2-4.7-1.1-8.7-4.6-10-8.9-0.6-1.8-1.9-3.1-3.7-3.6-2.3-0.6-4.8 0.2-6.8 2-2.9 2.8-7.4 3.8-11.9 2.7-4.6-1.2-8.2-4.4-9.5-8.3-0.4-1.5-1.3-2.4-2.8-2.8-1.8-0.5-4 0.1-4.9 0.9-1.2 1.1-3 1-4.1-0.2-1-1.2-0.9-3 0.3-4.1 2.4-2.2 6.7-3.1 10.2-2.1 3.4 0.9 5.8 3.2 6.8 6.6 0.7 2 2.8 3.7 5.4 4.4 2.6 0.7 5 0.2 6.6-1.3 3.3-3.1 8-4.4 12.2-3.3 3.7 1 6.6 3.7 7.7 7.4 0.7 2.4 3.1 4.4 5.8 5 1.6 0.4 4.8 0.6 7.7-2.5 1-1.2 2.9-1.3 4-0.2 1.2 1.1 1.3 2.9 0.2 4.1-2.2 2.4-4.9 3.9-7.9 4.4z"/>
			</g>
			<g id="&lt;Group&gt;">
				<path id="&lt;Path&gt;" class="s1" d="m499.2 719.8c-1.4-0.5-2.7-1.3-3.7-2.4-1-1.2-0.9-3 0.3-4.1 1.2-1 3-0.9 4.1 0.3 0.9 1.1 3.3 1.1 5.5 0 0.9-0.5 4-2.4 3.2-5.9-1.2-4.9 0.3-9.4 3.9-11.7 3.8-2.4 8.8-1.9 12.9 1.4 1.9 1.5 4.1 1.8 5.7 0.7 1.9-1.2 2.5-3.6 1.7-6.4-0.4-1.5 0.5-3.1 2-3.5 1.6-0.4 3.1 0.5 3.6 2 1.4 5.3-0.2 10.1-4.1 12.7-3.8 2.5-8.7 2.1-12.6-1-2-1.7-4.4-2.1-6.1-1.1-1.5 1-2.1 3-1.5 5.5 1.3 5-1.1 9.9-6.1 12.4-3 1.6-6.2 1.9-8.8 1.1z"/>
			</g>
			<g id="&lt;Group&gt;">
				<path id="&lt;Path&gt;" class="s3" d="m349.5 1064.4c1 1.4 2.2 2.7 3.7 3.8 4 2.8 9.2 3.4 13.3 1.5 1.8-0.8 3.6-0.6 5.1 0.4 2 1.3 3.2 3.7 3.1 6.3-0.1 4.2 2.1 8.2 6 10.7 4 2.7 8.7 3.2 12.5 1.5 1.4-0.6 2.7-0.5 3.9 0.3 1.6 1 2.6 3 2.6 4.2 0 1.6 1.3 2.9 2.9 2.9 1.6 0 2.9-1.3 2.9-2.9 0-3.3-2.1-7-5.2-9.1-2.9-1.8-6.3-2.1-9.5-0.6-1.9 0.9-4.6 0.5-6.9-1-2.2-1.5-3.5-3.7-3.4-5.8 0.1-4.6-2.1-8.9-5.7-11.3-3.2-2.2-7.1-2.4-10.7-0.8-2.2 1-5.3 0.6-7.6-1-1.3-1-3.6-3.2-3.2-7.4 0.1-1.5-1-3-2.6-3.1-1.6-0.2-3 1-3.1 2.6-0.3 3.2 0.4 6.3 1.9 8.8z"/>
			</g>
			<g id="&lt;Group&gt;">
				<path id="&lt;Path&gt;" class="s5" d="m437.7 77.5c-0.4-1.5-0.5-3-0.1-4.4 0.4-1.6 1.9-2.5 3.5-2.1 1.5 0.4 2.4 2 2 3.5-0.3 1.4 1 3.4 3.2 4.6 0.9 0.5 4.2 1.9 6.7-0.8 3.3-3.8 7.9-5 11.8-3.3 4.2 1.7 6.6 6.2 6.2 11.3-0.2 2.5 0.8 4.4 2.7 5.2 2 0.8 4.3 0 6.1-2.2 1.1-1.2 2.9-1.4 4.1-0.4 1.2 1.1 1.4 2.9 0.3 4.1-3.5 4.1-8.4 5.6-12.7 3.8-4.2-1.7-6.6-6-6.3-10.9 0.2-2.7-0.8-4.9-2.6-5.7-1.7-0.7-3.6 0-5.3 1.9-3.5 3.9-8.9 4.7-13.8 2-2.9-1.6-5-4-5.8-6.6z"/>
			</g>
			<g id="&lt;Group&gt;">
				<path id="&lt;Path&gt;" class="s0" d="m772.4 332.2c-1.6-0.5-3.2-1.3-4.6-2.5-3.8-3.1-5.7-8-4.9-12.5 0.3-1.9-0.3-3.6-1.7-4.8-1.7-1.6-4.4-2.1-6.9-1.4-3.9 1.2-8.4 0-11.9-3-3.5-3.2-5.3-7.6-4.6-11.7 0.2-1.5-0.2-2.7-1.3-3.7-1.4-1.3-3.6-1.8-4.7-1.5-1.6 0.4-3.2-0.5-3.6-2-0.4-1.6 0.5-3.1 2.1-3.5 3.2-0.9 7.4 0.2 10.1 2.7 2.5 2.3 3.6 5.5 3.1 9-0.4 2 0.7 4.5 2.7 6.3 2 1.8 4.4 2.5 6.5 1.9 4.4-1.3 9.1-0.3 12.4 2.6 2.9 2.5 4.1 6.2 3.5 10.1-0.5 2.4 0.7 5.3 2.9 7.1 1.3 1 4 2.6 7.9 1.2 1.5-0.6 3.2 0.2 3.7 1.7 0.6 1.5-0.2 3.1-1.7 3.7-3 1.1-6.1 1.2-9 0.3z"/>
			</g>
			<path id="&lt;Path&gt;" class="s2" d="m572.7 330.3c-3.2 2.9-8.4 2.9-11.6 0-3.3-3-3.3-7.7 0-10.7 3.2-2.9 8.4-2.9 11.6 0 3.2 3 3.2 7.7 0 10.7z"/>
			<path id="&lt;Path&gt;" class="s0" d="m660.4 289.4c-6.3 0-11.4-4.6-11.4-10.4 0-5.7 5.1-10.4 11.4-10.4 6.3 0 11.4 4.7 11.4 10.4 0 5.8-5.1 10.4-11.4 10.4z"/>
		</g>
	</g>
</svg>